<svg id="Layer_1" data-name="Layer 1" xmlns="http://www.w3.org/2000/svg" viewBox="0 0 825.62 208.18"><defs><style>.cls-1{fill:#327141;}.cls-2{fill:#fff;}</style></defs><title>HDIntelligence</title><path class="cls-1" d="M304.24,79.78H314.3v20h8.57v-20h10.07v48.55H322.87V108H314.3v20.33H304.24Z"/><path class="cls-1" d="M346.94,79.78h12.65c12-.2,16.39,3.94,16.18,15.23V113.1c.21,11.29-4.21,15.44-16.18,15.23H346.94Zm13.12,40.53c4.9-.14,5.65-1.22,5.65-9V96.78c0-7.75-.75-8.84-5.65-9H357v32.51Z"/><path class="cls-1" d="M407.8,79.78h5v48.55h-5Z"/><path class="cls-1" d="M429.08,79.78H434l14.21,38V79.78h4.69v48.55h-4.69L433.77,90.18v38.15h-4.69Z"/><path class="cls-1" d="M474.84,84h-8.36V79.78h21.69V84h-8.36v44.33h-5Z"/><path class="cls-1" d="M501.77,79.78h19.38V84H506.73v17.68H519v4.21H506.73v18.23h14.55v4.21H501.77Z"/><path class="cls-1" d="M535.36,79.78h5v44.34h14.89v4.21H535.36Z"/><path class="cls-1" d="M567.59,79.78h5v44.34h14.9v4.21H567.59Z"/><path class="cls-1" d="M599.82,79.78h5v48.55h-5Z"/><path class="cls-1" d="M632.66,103h11v10.13c0,5.51-.68,8.84-2.31,11.29-2,3-5.1,4.49-9.32,4.49s-7.68-1.57-9.59-4.56c-1.42-2.18-2-5.37-2-10.34v-20c0-5.44.75-8.77,2.45-11,2-2.51,4.9-3.81,8.71-3.81,4.82,0,8.22,2.11,9.92,6.13.75,1.83,1,3.87,1.09,7.27H638c-.21-6.59-2-9.25-6.4-9.25s-6.25,3.06-6.25,10.88v19.59c0,7.82,1.9,11,6.59,11s6.8-3.33,6.8-10.68v-7.07h-6.05Z"/><path class="cls-1" d="M658.5,79.78h19.38V84H663.46v17.68H675.7v4.21H663.46v18.23H678v4.21H658.5Z"/><path class="cls-1" d="M692.09,79.78H697l14.21,38V79.78h4.69v48.55H711.2L696.78,90.18v38.15h-4.69Z"/><path class="cls-1" d="M753.43,114.6c0,4.08-.34,6.25-1.36,8.43-1.77,3.88-5.1,5.92-9.86,5.92-4,0-7.15-1.57-9-4.56-1.29-2.11-1.91-5.44-1.91-10.34v-20c0-5.44.68-8.7,2.38-11,1.91-2.51,4.76-3.81,8.51-3.81,4.76,0,8,2,9.72,6.06.75,1.77,1.09,3.81,1.09,7.34h-4.49c-.27-6.73-1.9-9.25-6.19-9.25s-6.05,3.06-6.05,10.88v19.59c0,7.89,1.7,11,6.12,11s6.39-2.93,6.46-10.2Z"/><path class="cls-1" d="M768.25,79.78h19.38V84H773.21v17.68h12.24v4.21H773.21v18.23h14.55v4.21H768.25Z"/><rect class="cls-1" x="37.86" y="10.18" width="223.16" height="187.82" rx="25.31"/><path class="cls-2" d="M77,105.33a4.67,4.67,0,0,1-4.52,3h-.32v53.31H96.38V113.28h9.75v48.39h24.23V105.13H77.06Z"/><path class="cls-2" d="M106.13,92.16H96.38V46.51H72.15V99.82h.32a4.67,4.67,0,0,1,4.52,3l.07.21h53.3V46.51H106.13Z"/><path class="cls-2" d="M187.36,52.79a25.79,25.79,0,0,0-7.82-4.58A27,27,0,0,0,170,46.5H138.25v56.55h24.23V66h5.36a1.24,1.24,0,0,1,.54.11c1.34.68,2,1.54,2,2.64v34.29h24.23V68a18.49,18.49,0,0,0-2-8.36A21.93,21.93,0,0,0,187.36,52.79Z"/><path class="cls-2" d="M170.38,139.42c0,1.11-.66,2-2,2.64a1.28,1.28,0,0,1-.55.11h-5.34v-37H138.25v56.55H170a27,27,0,0,0,9.58-1.7,25.78,25.78,0,0,0,7.82-4.59,22.12,22.12,0,0,0,5.28-6.8,18.46,18.46,0,0,0,2-8.36v-35.1H170.38Z"/><path class="cls-2" d="M221.88,105.34l-.07-.21H202.5v56.55h24.23V108.36h-.32A4.69,4.69,0,0,1,221.88,105.34Z"/><path class="cls-2" d="M202.5,46.5v56.55h19.31l.07-.2a4.7,4.7,0,0,1,4.53-3h.32V46.5Z"/></svg>